<svg aria-hidden="true" class="ionicon" xmlns="http://www.w3.org/2000/svg">
<defs>

<symbol id="add" viewBox="0 0 512 512">
<path fill="none" stroke="currentColor" stroke-linecap="round" stroke-linejoin="round" stroke-width="32" d="M256 112v288M400 256H112"/>
</symbol>

<symbol id="close" viewBox="0 0 512 512">
<path fill="none" stroke="currentColor" stroke-linecap="round" stroke-linejoin="round" stroke-width="32" d="M368 368L144 144M368 144L144 368"/>
</symbol>

<symbol id="search" viewBox="0 0 512 512">
<path d="M221.09 64a157.09 157.09 0 10157.09 157.09A157.1 157.1 0 00221.09 64z" fill="none" stroke="currentColor" stroke-miterlimit="10" stroke-width="32"/><path fill="none" stroke="currentColor" stroke-linecap="round" stroke-miterlimit="10" stroke-width="32" d="M338.29 338.29L448 448"/>
</symbol>

<symbol id="refresh" viewBox="0 0 512 512">
<path d="M320 146s24.36-12-64-12a160 160 0 10160 160" fill="none" stroke="currentColor" stroke-linecap="round" stroke-miterlimit="10" stroke-width="32"/><path fill="none" stroke="currentColor" stroke-linecap="round" stroke-linejoin="round" stroke-width="32" d="M256 58l80 80-80 80"/>
</symbol>

<symbol id="alert-circle" viewBox="0 0 512 512">
<path d="M448 256c0-106-86-192-192-192S64 150 64 256s86 192 192 192 192-86 192-192z" fill="none" stroke="currentColor" stroke-miterlimit="10" stroke-width="32"/><path d="M250.26 166.05L256 288l5.73-121.95a5.74 5.74 0 00-5.79-6h0a5.74 5.74 0 00-5.68 6z" fill="none" stroke="currentColor" stroke-linecap="round" stroke-linejoin="round" stroke-width="32"/><path d="M256 367.91a20 20 0 1120-20 20 20 0 01-20 20z"/>
</symbol>

<symbol id="checkmark" viewBox="0 0 512 512">
<path fill="none" stroke="currentColor" stroke-linecap="round" stroke-linejoin="round" stroke-width="32" d="M416 128L192 384l-96-96"/>
</symbol>

<symbol id="checkmark-done" viewBox="0 0 512 512">
><path fill="none" stroke="currentColor" stroke-linecap="round" stroke-linejoin="round" stroke-width="32" d="M464 128L240 384l-96-96M144 384l-96-96M368 128L232 284"/>
</symbol>

<symbol id="log-in" viewBox="0 0 512 512">
<path d="M192 176v-40a40 40 0 0140-40h160a40 40 0 0140 40v240a40 40 0 01-40 40H240c-22.09 0-48-17.91-48-40v-40" fill="none" stroke="currentColor" stroke-linecap="round" stroke-linejoin="round" stroke-width="32"/><path fill="none" stroke="currentColor" stroke-linecap="round" stroke-linejoin="round" stroke-width="32" d="M288 336l80-80-80-80M80 256h272"/>
</symbol>

<symbol id="log-out" viewBox="0 0 512 512">
<path d="M304 336v40a40 40 0 01-40 40H104a40 40 0 01-40-40V136a40 40 0 0140-40h152c22.09 0 48 17.91 48 40v40M368 336l80-80-80-80M176 256h256" fill="none" stroke="currentColor" stroke-linecap="round" stroke-linejoin="round" stroke-width="32"/>
</symbol>

<symbol id="menu" viewBox="0 0 512 512">
<path fill="none" stroke="currentColor" stroke-linecap="round" stroke-miterlimit="10" stroke-width="32" d="M80 160h352M80 256h352M80 352h352"/>
</symbol>

<symbol id="settings" viewBox="0 0 512 512">
<path d="M262.29 192.31a64 64 0 1057.4 57.4 64.13 64.13 0 00-57.4-57.4zM416.39 256a154.34 154.34 0 01-1.53 20.79l45.21 35.46a10.81 10.81 0 012.45 13.75l-42.77 74a10.81 10.81 0 01-13.14 4.59l-44.9-18.08a16.11 16.11 0 00-15.17 1.75A164.48 164.48 0 01325 400.8a15.94 15.94 0 00-8.82 12.14l-6.73 47.89a11.08 11.08 0 01-10.68 9.17h-85.54a11.11 11.11 0 01-10.69-8.87l-6.72-47.82a16.07 16.07 0 00-9-12.22 155.3 155.3 0 01-21.46-12.57 16 16 0 00-15.11-1.71l-44.89 18.07a10.81 10.81 0 01-13.14-4.58l-42.77-74a10.8 10.8 0 012.45-13.75l38.21-30a16.05 16.05 0 006-14.08c-.36-4.17-.58-8.33-.58-12.5s.21-8.27.58-12.35a16 16 0 00-6.07-13.94l-38.19-30A10.81 10.81 0 0149.48 186l42.77-74a10.81 10.81 0 0113.14-4.59l44.9 18.08a16.11 16.11 0 0015.17-1.75A164.48 164.48 0 01187 111.2a15.94 15.94 0 008.82-12.14l6.73-47.89A11.08 11.08 0 01213.23 42h85.54a11.11 11.11 0 0110.69 8.87l6.72 47.82a16.07 16.07 0 009 12.22 155.3 155.3 0 0121.46 12.57 16 16 0 0015.11 1.71l44.89-18.07a10.81 10.81 0 0113.14 4.58l42.77 74a10.8 10.8 0 01-2.45 13.75l-38.21 30a16.05 16.05 0 00-6.05 14.08c.33 4.14.55 8.3.55 12.47z" fill="none" stroke="currentColor" stroke-linecap="round" stroke-linejoin="round" stroke-width="32"/>
</symbol>

<symbol id="expand" viewBox="0 0 512 512">
<path d="M136 208l120-104 120 104M136 304l120 104 120-104" stroke="currentColor" fill="none" stroke-width="32" stroke-linecap="round" stroke-linejoin="round"/>
</symbol>

<symbol id="lock-open" viewBox="0 0 512 512">
<path d="M336 112a80 80 0 00-160 0v96" fill="none" stroke="currentColor" stroke-linecap="round" stroke-linejoin="round" stroke-width="32"/><rect x="96" y="208" width="320" height="272" rx="48" ry="48" fill="none" stroke="currentColor" stroke-linecap="round" stroke-linejoin="round" stroke-width="32"/>
</symbol>

<symbol id="eye" viewBox="0 0 512 512">
<path d="M255.66 112c-77.94 0-157.89 45.11-220.83 135.33a16 16 0 00-.27 17.77C82.92 340.8 161.8 400 255.66 400c92.84 0 173.34-59.38 221.79-135.25a16.14 16.14 0 000-17.47C428.89 172.28 347.8 112 255.66 112z" fill="none" stroke="currentColor" stroke-linecap="round" stroke-linejoin="round" stroke-width="32"/><circle cx="256" cy="256" r="80" fill="none" stroke="currentColor" stroke-miterlimit="10" stroke-width="32"/>
</symbol>

<symbol id="eye-off" viewBox="0 0 512 512">
<path d="M432 448a15.92 15.92 0 01-11.31-4.69l-352-352a16 16 0 0122.62-22.62l352 352A16 16 0 01432 448zM255.66 384c-41.49 0-81.5-12.28-118.92-36.5-34.07-22-64.74-53.51-88.7-91v-.08c19.94-28.57 41.78-52.73 65.24-72.21a2 2 0 00.14-2.94L93.5 161.38a2 2 0 00-2.71-.12c-24.92 21-48.05 46.76-69.08 76.92a31.92 31.92 0 00-.64 35.54c26.41 41.33 60.4 76.14 98.28 100.65C162 402 207.9 416 255.66 416a239.13 239.13 0 0075.8-12.58 2 2 0 00.77-3.31l-21.58-21.58a4 4 0 00-3.83-1 204.8 204.8 0 01-51.16 6.47zM490.84 238.6c-26.46-40.92-60.79-75.68-99.27-100.53C349 110.55 302 96 255.66 96a227.34 227.34 0 00-74.89 12.83 2 2 0 00-.75 3.31l21.55 21.55a4 4 0 003.88 1 192.82 192.82 0 0150.21-6.69c40.69 0 80.58 12.43 118.55 37 34.71 22.4 65.74 53.88 89.76 91a.13.13 0 010 .16 310.72 310.72 0 01-64.12 72.73 2 2 0 00-.15 2.95l19.9 19.89a2 2 0 002.7.13 343.49 343.49 0 0068.64-78.48 32.2 32.2 0 00-.1-34.78z"/><path d="M256 160a95.88 95.88 0 00-21.37 2.4 2 2 0 00-1 3.38l112.59 112.56a2 2 0 003.38-1A96 96 0 00256 160zM165.78 233.66a2 2 0 00-3.38 1 96 96 0 00115 115 2 2 0 001-3.38z"/>
</symbol>

<symbol id="mail" viewBox="0 0 512 512">
<rect x="48" y="96" width="416" height="320" rx="40" ry="40" fill="none" stroke="currentColor" stroke-linecap="round" stroke-linejoin="round" stroke-width="32"/><path fill="none" stroke="currentColor" stroke-linecap="round" stroke-linejoin="round" stroke-width="32" d="M112 160l144 112 144-112"/>
</symbol>

<symbol id="person" viewBox="0 0 512 512">
<path d="M344 144c-3.92 52.87-44 96-88 96s-84.15-43.12-88-96c-4-55 35-96 88-96s92 42 88 96z" fill="none" stroke="currentColor" stroke-linecap="round" stroke-linejoin="round" stroke-width="32"/><path d="M256 304c-87 0-175.3 48-191.64 138.6C62.39 453.52 68.57 464 80 464h352c11.44 0 17.62-10.48 15.65-21.4C431.3 352 343 304 256 304z" fill="none" stroke="currentColor" stroke-miterlimit="10" stroke-width="32"/>
</symbol>

<symbol id="people" viewBox="0 0 512 512">
<path d="M402 168c-2.93 40.67-33.1 72-66 72s-63.12-31.32-66-72c-3-42.31 26.37-72 66-72s69 30.46 66 72z" fill="none" stroke="currentColor" stroke-linecap="round" stroke-linejoin="round" stroke-width="32"/><path d="M336 304c-65.17 0-127.84 32.37-143.54 95.41-2.08 8.34 3.15 16.59 11.72 16.59h263.65c8.57 0 13.77-8.25 11.72-16.59C463.85 335.36 401.18 304 336 304z" fill="none" stroke="currentColor" stroke-miterlimit="10" stroke-width="32"/><path d="M200 185.94c-2.34 32.48-26.72 58.06-53 58.06s-50.7-25.57-53-58.06C91.61 152.15 115.34 128 147 128s55.39 24.77 53 57.94z" fill="none" stroke="currentColor" stroke-linecap="round" stroke-linejoin="round" stroke-width="32"/><path d="M206 306c-18.05-8.27-37.93-11.45-59-11.45-52 0-102.1 25.85-114.65 76.2-1.65 6.66 2.53 13.25 9.37 13.25H154" fill="none" stroke="currentColor" stroke-linecap="round" stroke-miterlimit="10" stroke-width="32"/>
</symbol>

<symbol id="calendar" viewBox="0 0 512 512">
<rect fill="none" stroke="currentColor" stroke-linejoin="round" stroke-width="32" x="48" y="80" width="416" height="384" rx="48"/><circle cx="296" cy="232" r="24"/><circle cx="376" cy="232" r="24"/><circle cx="296" cy="312" r="24"/><circle cx="376" cy="312" r="24"/><circle cx="136" cy="312" r="24"/><circle cx="216" cy="312" r="24"/><circle cx="136" cy="392" r="24"/><circle cx="216" cy="392" r="24"/><circle cx="296" cy="392" r="24"/><path fill="none" stroke="currentColor" stroke-linejoin="round" stroke-width="32" stroke-linecap="round" d="M128 48v32M384 48v32"/><path fill="none" stroke="currentColor" stroke-linejoin="round" stroke-width="32" d="M464 160H48"/>
</symbol>

<symbol id="calendar-number" viewBox="0 0 512 512">
<rect x="48" y="80" width="416" height="384" rx="48" fill="none" stroke="currentColor" stroke-linejoin="round" stroke-width="32"/><path fill="none" stroke="currentColor" stroke-linecap="round" stroke-linejoin="round" stroke-width="32" d="M128 48v32M384 48v32M464 160H48M304 260l43.42-32H352v168M191.87 306.63c9.11 0 25.79-4.28 36.72-15.47a37.9 37.9 0 0011.13-27.26c0-26.12-22.59-39.9-47.89-39.9-21.4 0-33.52 11.61-37.85 18.93M149 374.16c4.88 8.27 19.71 25.84 43.88 25.84 28.59 0 52.12-15.94 52.12-43.82 0-12.62-3.66-24-11.58-32.07-12.36-12.64-31.25-17.48-41.55-17.48"/>
</symbol>

<symbol id="construct" viewBox="0 0 512 512">
<path d="M436.67 184.11a27.17 27.17 0 01-38.3 0l-22.48-22.49a27.15 27.15 0 010-38.29l50.89-50.89a.85.85 0 00-.26-1.38C393.68 57 351.09 64.15 324.05 91c-25.88 25.69-27.35 64.27-17.87 98a27 27 0 01-7.67 27.14l-173 160.76a40.76 40.76 0 1057.57 57.54l162.15-173.3a27 27 0 0126.77-7.7c33.46 8.94 71.49 7.26 97.07-17.94 27.49-27.08 33.42-74.94 20.1-102.33a.85.85 0 00-1.36-.22z" fill="none" stroke="currentColor" stroke-linecap="round" stroke-miterlimit="10" stroke-width="32"/><path d="M224 284c-17.48-17-25.49-24.91-31-30.29a18.24 18.24 0 01-3.33-21.35 20.76 20.76 0 013.5-4.62l15.68-15.29a18.66 18.66 0 015.63-3.87 18.11 18.11 0 0120 3.62c5.45 5.29 15.43 15 33.41 32.52M317.07 291.3c40.95 38.1 90.62 83.27 110 99.41a13.46 13.46 0 01.94 19.92L394.63 444a14 14 0 01-20.29-.76c-16.53-19.18-61.09-67.11-99.27-107" fill="none" stroke="currentColor" stroke-linecap="round" stroke-linejoin="round" stroke-width="32"/><path d="M17.34 193.5l29.41-28.74a4.71 4.71 0 013.41-1.35 4.85 4.85 0 013.41 1.35h0a9.86 9.86 0 008.19 2.77c3.83-.42 7.92-1.6 10.57-4.12 6-5.8-.94-17.23 4.34-24.54a207 207 0 0119.78-22.6c6-5.88 29.84-28.32 69.9-44.45A107.31 107.31 0 01206.67 64c22.59 0 40 10 46.26 15.67a89.54 89.54 0 0110.28 11.64 78.92 78.92 0 00-9.21-2.77 68.82 68.82 0 00-20-1.26c-13.33 1.09-29.41 7.26-38 14-13.9 11-19.87 25.72-20.81 44.71-.68 14.12 2.72 22.1 36.1 55.49a6.6 6.6 0 01-.34 9.16l-18.22 18a6.88 6.88 0 01-9.54.09c-21.94-21.94-36.65-33.09-45-38.16s-15.07-6.5-18.3-6.85a30.85 30.85 0 00-18.27 3.87 11.39 11.39 0 00-2.64 2 14.14 14.14 0 00.42 20.08l1.71 1.6a4.63 4.63 0 010 6.64L71.73 246.6a4.71 4.71 0 01-3.41 1.4 4.86 4.86 0 01-3.41-1.35l-47.57-46.43a4.88 4.88 0 010-6.72z" fill="none" stroke="currentColor" stroke-linecap="round" stroke-linejoin="round" stroke-width="32"/>
</symbol>

<symbol id="business" viewBox="0 0 512 512">
<path fill="none" stroke="currentColor" stroke-linecap="round" stroke-linejoin="round" stroke-width="32" d="M176 416v64M80 32h192a32 32 0 0132 32v412a4 4 0 01-4 4H48h0V64a32 32 0 0132-32zM320 192h112a32 32 0 0132 32v256h0-160 0V208a16 16 0 0116-16z"/><path d="M98.08 431.87a16 16 0 1113.79-13.79 16 16 0 01-13.79 13.79zM98.08 351.87a16 16 0 1113.79-13.79 16 16 0 01-13.79 13.79zM98.08 271.87a16 16 0 1113.79-13.79 16 16 0 01-13.79 13.79zM98.08 191.87a16 16 0 1113.79-13.79 16 16 0 01-13.79 13.79zM98.08 111.87a16 16 0 1113.79-13.79 16 16 0 01-13.79 13.79zM178.08 351.87a16 16 0 1113.79-13.79 16 16 0 01-13.79 13.79zM178.08 271.87a16 16 0 1113.79-13.79 16 16 0 01-13.79 13.79zM178.08 191.87a16 16 0 1113.79-13.79 16 16 0 01-13.79 13.79zM178.08 111.87a16 16 0 1113.79-13.79 16 16 0 01-13.79 13.79zM258.08 431.87a16 16 0 1113.79-13.79 16 16 0 01-13.79 13.79zM258.08 351.87a16 16 0 1113.79-13.79 16 16 0 01-13.79 13.79zM258.08 271.87a16 16 0 1113.79-13.79 16 16 0 01-13.79 13.79z"/><ellipse cx="256" cy="176" rx="15.95" ry="16.03" transform="rotate(-45 255.99 175.996)"/><path d="M258.08 111.87a16 16 0 1113.79-13.79 16 16 0 01-13.79 13.79zM400 400a16 16 0 1016 16 16 16 0 00-16-16zM400 320a16 16 0 1016 16 16 16 0 00-16-16zM400 240a16 16 0 1016 16 16 16 0 00-16-16zM336 400a16 16 0 1016 16 16 16 0 00-16-16zM336 320a16 16 0 1016 16 16 16 0 00-16-16zM336 240a16 16 0 1016 16 16 16 0 00-16-16z"/>
</symbol>

</defs>
</svg>