<?xml version="1.0" encoding="utf-8"?>
<!-- Generator: Adobe Illustrator 16.0.0, SVG Export Plug-In . SVG Version: 6.00 Build 0)  -->
<!DOCTYPE svg PUBLIC "-//W3C//DTD SVG 1.1//EN" "http://www.w3.org/Graphics/SVG/1.1/DTD/svg11.dtd">
<svg version="1.1" id="Logo" xmlns="http://www.w3.org/2000/svg" xmlns:xlink="http://www.w3.org/1999/xlink" x="0px" y="0px"
	 width="195px" height="195px" viewBox="0 0 195 195" enable-background="new 0 0 195 195" xml:space="preserve">
<path fill="#B71765" d="M168.081,65.381c0,0.833-0.677,1.51-1.51,1.51h-13.23c-0.837,0-1.514-0.677-1.514-1.51V50.27
	c0-0.833,0.677-1.51,1.514-1.51h13.23c0.833,0,1.51,0.677,1.51,1.51V65.381z"/>
<path fill="#B71765" d="M167.814,82.429c-0.178-0.649-0.372-1.188-0.587-1.618l-9.812-8.496c-0.5-0.188-1.104-0.354-1.813-0.511
	c-0.712-0.152-1.352-0.229-1.92-0.229h-0.101c-1.17,0-1.755,0.677-1.755,2.025v70.611c0,1.35,0.585,2.027,1.755,2.027h12.746
	c1.17,0,1.753-0.678,1.753-2.027V88.755v-4.618C168.081,83.644,167.992,83.075,167.814,82.429z"/>
<path fill="#666360" d="M80.862,59.426l8.499-9.813c0.431-0.214,0.969-0.408,1.615-0.587c0.647-0.176,1.217-0.266,1.709-0.266h4.619
	h43.966h5.357c0.492,0,0.908,0.196,1.246,0.587c0.34,0.391,0.508,0.871,0.508,1.439v9.171v46.506v14.934
	c0,1.351-0.584,2.027-1.754,2.027h-12.747c-1.17,0-1.755-0.677-1.755-2.027v-10.132V85.238V66.891H121.78v10.561v34.452v9.493
	c0,0.569-0.17,1.049-0.506,1.44c-0.339,0.393-0.754,0.587-1.249,0.587h-11.637c-0.492,0-0.893-0.194-1.201-0.587
	c-0.31-0.392-0.461-0.871-0.461-1.44v-8V80.438V66.891H96.381v12.268v27.624v14.614c0,0.569-0.154,1.049-0.462,1.44
	c-0.308,0.393-0.707,0.587-1.201,0.587H81.879c-0.492,0-0.908-0.194-1.246-0.587c-0.339-0.392-0.509-0.871-0.509-1.44v-9.281V68.599
	v-5.44c0-0.569,0.077-1.208,0.231-1.92C80.51,60.529,80.678,59.922,80.862,59.426z"/>
<path fill="#666360" d="M74.581,48.76h-1.94c-0.494,0-1.063,0.09-1.709,0.266c-0.646,0.179-1.184,0.373-1.616,0.587l-8.498,9.813
	c-0.185,0.496-0.354,1.103-0.507,1.813c-0.153,0.712-0.232,1.351-0.232,1.92v4.694v0.746v22.933v11.841
	c0,0.57-0.171,1.049-0.508,1.438c-0.341,0.393-0.753,0.587-1.246,0.587H44.932c-0.494,0-0.909-0.194-1.248-0.587
	c-0.338-0.389-0.508-0.867-0.508-1.438V88.118c0-0.567-0.17-1.048-0.508-1.438c-0.34-0.391-0.755-0.587-1.245-0.587H28.676
	c-0.494,0-0.91,0.196-1.248,0.587s-0.509,0.871-0.509,1.438v9.388v8.211v3.309c0,0.57,0.063,1.209,0.187,1.921
	c0.123,0.708,0.307,1.315,0.553,1.813l8.498,9.813c0.43,0.284,0.953,0.5,1.57,0.639c0.615,0.146,1.168,0.215,1.662,0.215h5.357
	h14.225h4.803c0.492,0,1.062-0.069,1.709-0.215c0.647-0.139,1.186-0.354,1.616-0.639l8.498-9.813
	c0.186-0.497,0.352-1.104,0.509-1.813c0.151-0.712,0.229-1.351,0.229-1.921v-3.735V60.384v-9.598c0-0.568-0.17-1.049-0.506-1.439
	C75.487,48.957,75.071,48.76,74.581,48.76z"/>
<g>
	<path fill="#53504C" d="M84.504,146.351c-0.588,0-1.141-0.103-1.659-0.307c-0.519-0.204-0.969-0.48-1.35-0.827
		c-0.382-0.347-0.686-0.756-0.91-1.228c-0.226-0.471-0.338-0.974-0.338-1.508V131.94c0-0.534,0.112-1.036,0.338-1.508
		c0.225-0.471,0.528-0.881,0.91-1.228c0.381-0.347,0.831-0.623,1.35-0.827s1.071-0.307,1.659-0.307c0.587,0,1.135,0.103,1.644,0.307
		s0.954,0.48,1.336,0.827c0.381,0.347,0.685,0.756,0.91,1.228c0.225,0.472,0.337,0.974,0.337,1.508v10.541
		c0,0.534-0.112,1.037-0.337,1.508c-0.226,0.472-0.529,0.881-0.91,1.228c-0.382,0.347-0.827,0.623-1.336,0.827
		C85.639,146.248,85.091,146.351,84.504,146.351z M84.504,128.951c-0.451,0-0.876,0.08-1.277,0.24
		c-0.401,0.161-0.748,0.375-1.042,0.642c-0.294,0.267-0.528,0.579-0.704,0.935c-0.177,0.356-0.265,0.74-0.265,1.149v10.558
		c0,0.41,0.088,0.798,0.265,1.163c0.176,0.365,0.41,0.682,0.704,0.949c0.294,0.268,0.641,0.481,1.042,0.642s0.826,0.24,1.277,0.24
		c0.449,0,0.87-0.08,1.262-0.24s0.734-0.374,1.027-0.642c0.294-0.267,0.528-0.583,0.705-0.949c0.176-0.365,0.264-0.753,0.264-1.163
		v-10.558c0-0.41-0.088-0.793-0.264-1.149c-0.177-0.356-0.411-0.668-0.705-0.935c-0.293-0.268-0.636-0.481-1.027-0.642
		C85.374,129.031,84.953,128.951,84.504,128.951z"/>
	<path fill="#53504C" d="M100.208,132.927c0.548,0,1.062,0.093,1.541,0.28c0.479,0.187,0.896,0.44,1.248,0.761
		c0.352,0.32,0.631,0.698,0.836,1.134c0.206,0.437,0.309,0.903,0.309,1.401v6.271c0,0.499-0.103,0.965-0.309,1.401
		c-0.205,0.436-0.484,0.814-0.836,1.134c-0.353,0.32-0.769,0.574-1.248,0.761s-0.993,0.28-1.541,0.28
		c-0.587,0-1.135-0.111-1.644-0.333c-0.51-0.222-0.95-0.521-1.321-0.894v1.094h-0.969v-3.443v-6.271v-9.42h0.969v7.072
		c0.371-0.391,0.812-0.694,1.321-0.907C99.073,133.034,99.621,132.927,100.208,132.927z M103.173,136.503
		c0-0.374-0.078-0.725-0.234-1.054c-0.157-0.329-0.367-0.614-0.632-0.854c-0.264-0.24-0.577-0.431-0.939-0.574
		c-0.362-0.142-0.748-0.213-1.159-0.213s-0.798,0.071-1.159,0.213c-0.362,0.143-0.676,0.333-0.939,0.574
		c-0.265,0.24-0.475,0.525-0.632,0.854c-0.156,0.329-0.234,0.68-0.234,1.054v6.271c0,0.374,0.078,0.725,0.234,1.054
		c0.157,0.33,0.367,0.614,0.632,0.854c0.264,0.24,0.577,0.432,0.939,0.574c0.361,0.143,0.748,0.213,1.159,0.213
		s0.797-0.071,1.159-0.213c0.362-0.142,0.676-0.333,0.939-0.574c0.265-0.24,0.475-0.524,0.632-0.854
		c0.156-0.329,0.234-0.681,0.234-1.054V136.503z"/>
	<path fill="#53504C" d="M117.733,132.927v0.881h-1.145c-0.411,0-0.793,0.071-1.145,0.213c-0.353,0.143-0.666,0.333-0.939,0.574
		c-0.274,0.24-0.489,0.525-0.646,0.854c-0.156,0.329-0.234,0.68-0.234,1.054v3.122v6.592h-0.969v-6.592v-3.122v-2.562h-0.969v-0.881
		h0.969h0.969v0.881v0.213c0.743-0.783,1.702-1.192,2.877-1.228H117.733z"/>
	<path fill="#53504C" d="M127.978,132.927c0.548,0,1.047,0.093,1.498,0.28c0.449,0.187,0.836,0.44,1.159,0.761
		c0.323,0.32,0.577,0.698,0.763,1.134c0.187,0.437,0.279,0.903,0.279,1.401v3.122v3.149v3.443h-0.969v-1.094
		c-0.372,0.374-0.813,0.672-1.321,0.894s-1.057,0.333-1.644,0.333c-0.548,0-1.062-0.093-1.541-0.28s-0.896-0.44-1.248-0.761
		c-0.352-0.32-0.631-0.698-0.836-1.134c-0.206-0.436-0.309-0.903-0.309-1.401v-0.747c0-1.103,0.743-1.903,2.231-2.402
		c0.176-0.071,0.474-0.178,0.895-0.32c0.421-0.142,0.871-0.297,1.351-0.467c0.479-0.169,0.944-0.329,1.395-0.48
		c0.45-0.151,0.793-0.271,1.027-0.36v-1.494c0-0.748-0.249-1.383-0.749-1.908c-0.499-0.524-1.159-0.787-1.981-0.787
		c-0.41,0-0.792,0.071-1.145,0.213c-0.353,0.143-0.665,0.333-0.939,0.574s-0.489,0.525-0.646,0.854
		c-0.157,0.329-0.235,0.68-0.235,1.054h-0.969c0-0.498,0.104-0.965,0.309-1.401c0.206-0.436,0.484-0.814,0.837-1.134
		c0.353-0.32,0.768-0.574,1.247-0.761C126.916,133.021,127.43,132.927,127.978,132.927z M130.708,139.625v-0.667
		c-0.294,0.106-0.656,0.231-1.086,0.374c-0.431,0.143-0.861,0.29-1.292,0.44c-0.431,0.151-0.821,0.289-1.174,0.414
		s-0.607,0.213-0.764,0.267c-0.372,0.125-0.733,0.312-1.086,0.561c-0.353,0.25-0.528,0.587-0.528,1.014v0.747
		c0,0.374,0.078,0.725,0.234,1.054c0.157,0.33,0.367,0.614,0.632,0.854c0.264,0.24,0.577,0.432,0.939,0.574
		c0.361,0.143,0.748,0.213,1.159,0.213s0.797-0.071,1.159-0.213c0.362-0.142,0.676-0.333,0.939-0.574
		c0.265-0.24,0.475-0.524,0.632-0.854c0.156-0.329,0.234-0.681,0.234-1.054V139.625z"/>
	<path fill="#53504C" d="M143.389,139.225c0.431,0.196,0.866,0.405,1.307,0.627c0.44,0.223,0.837,0.476,1.189,0.76
		c0.352,0.285,0.641,0.601,0.865,0.948c0.225,0.347,0.338,0.751,0.338,1.214c0,0.499-0.103,0.965-0.309,1.401
		c-0.205,0.436-0.484,0.814-0.836,1.134c-0.353,0.32-0.769,0.574-1.248,0.761s-0.993,0.28-1.541,0.28s-1.062-0.093-1.541-0.28
		s-0.896-0.44-1.248-0.761c-0.352-0.32-0.631-0.698-0.836-1.134c-0.206-0.436-0.309-0.903-0.309-1.401h0.969
		c0,0.374,0.078,0.725,0.234,1.054c0.157,0.33,0.367,0.614,0.632,0.854c0.264,0.24,0.577,0.432,0.939,0.574
		c0.361,0.143,0.748,0.213,1.159,0.213s0.797-0.071,1.159-0.213c0.362-0.142,0.676-0.333,0.939-0.574
		c0.265-0.24,0.475-0.524,0.632-0.854c0.156-0.329,0.234-0.681,0.234-1.054c0-0.32-0.088-0.609-0.265-0.867
		c-0.176-0.258-0.41-0.494-0.704-0.707c-0.294-0.214-0.631-0.414-1.013-0.601s-0.778-0.378-1.188-0.574
		c-0.451-0.196-0.896-0.404-1.336-0.627s-0.837-0.471-1.189-0.748c-0.352-0.275-0.641-0.587-0.865-0.934
		c-0.226-0.347-0.338-0.751-0.338-1.214c0-0.498,0.103-0.965,0.309-1.401c0.205-0.436,0.484-0.814,0.836-1.134
		c0.353-0.32,0.769-0.574,1.248-0.761c0.479-0.187,0.993-0.28,1.541-0.28s1.062,0.093,1.541,0.28
		c0.479,0.187,0.896,0.44,1.248,0.761c0.352,0.32,0.631,0.698,0.836,1.134c0.206,0.437,0.309,0.903,0.309,1.401h-0.969
		c0-0.374-0.078-0.725-0.234-1.054c-0.157-0.329-0.367-0.614-0.632-0.854c-0.264-0.24-0.577-0.431-0.939-0.574
		c-0.362-0.142-0.748-0.213-1.159-0.213s-0.798,0.071-1.159,0.213c-0.362,0.143-0.676,0.333-0.939,0.574
		c-0.265,0.24-0.475,0.525-0.632,0.854c-0.156,0.329-0.234,0.68-0.234,1.054c0,0.32,0.088,0.609,0.265,0.867
		c0.176,0.258,0.415,0.494,0.719,0.707c0.303,0.213,0.646,0.414,1.027,0.601S142.979,139.048,143.389,139.225z"/>
</g>
</svg>
